<svg width="601" height="428" viewBox="0 0 601 428" fill="none" xmlns="http://www.w3.org/2000/svg">
<rect width="601" height="428" fill="#566573"/>
<path d="M138.295 154V130.727H142.511V140.58H153.295V130.727H157.523V154H153.295V144.114H142.511V154H138.295ZM161.085 134.261V130.727H179.653V134.261H172.46V154H168.278V134.261H161.085ZM183.233 130.727H188.392L195.301 147.591H195.574L202.483 130.727H207.642V154H203.597V138.011H203.381L196.949 153.932H193.926L187.494 137.977H187.278V154H183.233V130.727ZM212.233 154V130.727H216.449V150.466H226.699V154H212.233Z" fill="white"/>
<path d="M294.216 177.58H289.966C289.845 176.883 289.621 176.265 289.295 175.727C288.97 175.182 288.564 174.72 288.08 174.341C287.595 173.962 287.042 173.678 286.42 173.489C285.807 173.292 285.144 173.193 284.432 173.193C283.167 173.193 282.045 173.511 281.068 174.148C280.091 174.777 279.326 175.701 278.773 176.92C278.22 178.133 277.943 179.614 277.943 181.364C277.943 183.144 278.22 184.644 278.773 185.864C279.333 187.076 280.098 187.992 281.068 188.614C282.045 189.227 283.163 189.534 284.42 189.534C285.117 189.534 285.769 189.443 286.375 189.261C286.989 189.072 287.538 188.795 288.023 188.432C288.515 188.068 288.928 187.621 289.261 187.091C289.602 186.561 289.837 185.955 289.966 185.273L294.216 185.295C294.057 186.402 293.712 187.439 293.182 188.409C292.659 189.379 291.973 190.235 291.125 190.977C290.277 191.712 289.284 192.288 288.148 192.705C287.011 193.114 285.75 193.318 284.364 193.318C282.318 193.318 280.492 192.845 278.886 191.898C277.28 190.951 276.015 189.583 275.091 187.795C274.167 186.008 273.705 183.864 273.705 181.364C273.705 178.856 274.17 176.712 275.102 174.932C276.034 173.144 277.303 171.777 278.909 170.83C280.515 169.883 282.333 169.409 284.364 169.409C285.659 169.409 286.864 169.591 287.977 169.955C289.091 170.318 290.083 170.852 290.955 171.557C291.826 172.254 292.542 173.11 293.102 174.125C293.67 175.133 294.042 176.284 294.216 177.58ZM310.724 176.125C310.618 175.133 310.171 174.36 309.384 173.807C308.603 173.254 307.588 172.977 306.338 172.977C305.459 172.977 304.705 173.11 304.077 173.375C303.448 173.64 302.967 174 302.634 174.455C302.3 174.909 302.13 175.428 302.122 176.011C302.122 176.496 302.232 176.917 302.452 177.273C302.679 177.629 302.986 177.932 303.372 178.182C303.759 178.424 304.187 178.629 304.656 178.795C305.126 178.962 305.599 179.102 306.077 179.216L308.259 179.761C309.137 179.966 309.982 180.242 310.793 180.591C311.611 180.939 312.342 181.379 312.986 181.909C313.637 182.439 314.152 183.08 314.531 183.83C314.91 184.58 315.099 185.458 315.099 186.466C315.099 187.83 314.751 189.03 314.054 190.068C313.357 191.098 312.349 191.905 311.031 192.489C309.721 193.064 308.134 193.352 306.27 193.352C304.459 193.352 302.887 193.072 301.554 192.511C300.228 191.951 299.19 191.133 298.44 190.057C297.698 188.981 297.296 187.67 297.236 186.125H301.384C301.444 186.936 301.694 187.61 302.134 188.148C302.573 188.686 303.145 189.087 303.849 189.352C304.562 189.617 305.357 189.75 306.236 189.75C307.152 189.75 307.955 189.614 308.645 189.341C309.342 189.061 309.887 188.674 310.281 188.182C310.675 187.682 310.876 187.098 310.884 186.432C310.876 185.826 310.698 185.326 310.349 184.932C310.001 184.53 309.512 184.197 308.884 183.932C308.262 183.659 307.535 183.417 306.702 183.205L304.054 182.523C302.137 182.03 300.622 181.284 299.509 180.284C298.402 179.277 297.849 177.939 297.849 176.273C297.849 174.902 298.221 173.701 298.963 172.67C299.713 171.64 300.732 170.841 302.02 170.273C303.308 169.697 304.766 169.409 306.395 169.409C308.046 169.409 309.493 169.697 310.736 170.273C311.986 170.841 312.967 171.633 313.679 172.648C314.391 173.655 314.759 174.814 314.781 176.125H310.724ZM331.506 176.125C331.4 175.133 330.953 174.36 330.165 173.807C329.384 173.254 328.369 172.977 327.119 172.977C326.241 172.977 325.487 173.11 324.858 173.375C324.229 173.64 323.748 174 323.415 174.455C323.081 174.909 322.911 175.428 322.903 176.011C322.903 176.496 323.013 176.917 323.233 177.273C323.46 177.629 323.767 177.932 324.153 178.182C324.54 178.424 324.968 178.629 325.438 178.795C325.907 178.962 326.381 179.102 326.858 179.216L329.04 179.761C329.919 179.966 330.763 180.242 331.574 180.591C332.392 180.939 333.123 181.379 333.767 181.909C334.419 182.439 334.934 183.08 335.312 183.83C335.691 184.58 335.881 185.458 335.881 186.466C335.881 187.83 335.532 189.03 334.835 190.068C334.138 191.098 333.131 191.905 331.812 192.489C330.502 193.064 328.915 193.352 327.051 193.352C325.241 193.352 323.669 193.072 322.335 192.511C321.009 191.951 319.972 191.133 319.222 190.057C318.479 188.981 318.078 187.67 318.017 186.125H322.165C322.225 186.936 322.475 187.61 322.915 188.148C323.354 188.686 323.926 189.087 324.631 189.352C325.343 189.617 326.138 189.75 327.017 189.75C327.934 189.75 328.737 189.614 329.426 189.341C330.123 189.061 330.669 188.674 331.062 188.182C331.456 187.682 331.657 187.098 331.665 186.432C331.657 185.826 331.479 185.326 331.131 184.932C330.782 184.53 330.294 184.197 329.665 183.932C329.044 183.659 328.316 183.417 327.483 183.205L324.835 182.523C322.919 182.03 321.403 181.284 320.29 180.284C319.184 179.277 318.631 177.939 318.631 176.273C318.631 174.902 319.002 173.701 319.744 172.67C320.494 171.64 321.513 170.841 322.801 170.273C324.089 169.697 325.547 169.409 327.176 169.409C328.828 169.409 330.275 169.697 331.517 170.273C332.767 170.841 333.748 171.633 334.46 172.648C335.172 173.655 335.54 174.814 335.562 176.125H331.506Z" fill="#D35400"/>
<path d="M78.2955 232V208.727H87.2045C88.8864 208.727 90.2841 208.992 91.3977 209.523C92.5189 210.045 93.3561 210.761 93.9091 211.67C94.4697 212.58 94.75 213.61 94.75 214.761C94.75 215.708 94.5682 216.519 94.2045 217.193C93.8409 217.86 93.3523 218.402 92.7386 218.818C92.125 219.235 91.4394 219.534 90.6818 219.716V219.943C91.5076 219.989 92.2992 220.242 93.0568 220.705C93.822 221.159 94.447 221.803 94.9318 222.636C95.4167 223.47 95.6591 224.477 95.6591 225.659C95.6591 226.864 95.3674 227.947 94.7841 228.909C94.2008 229.864 93.322 230.617 92.1477 231.17C90.9735 231.723 89.4962 232 87.7159 232H78.2955ZM82.5114 228.477H87.0455C88.5758 228.477 89.678 228.186 90.3523 227.602C91.0341 227.011 91.375 226.254 91.375 225.33C91.375 224.64 91.2045 224.019 90.8636 223.466C90.5227 222.905 90.0379 222.466 89.4091 222.148C88.7803 221.822 88.0303 221.659 87.1591 221.659H82.5114V228.477ZM82.5114 218.625H86.6818C87.4091 218.625 88.0644 218.492 88.6477 218.227C89.2311 217.955 89.6894 217.572 90.0227 217.08C90.3636 216.58 90.5341 215.989 90.5341 215.307C90.5341 214.405 90.2159 213.663 89.5795 213.08C88.9508 212.496 88.0152 212.205 86.7727 212.205H82.5114V218.625ZM106.759 232.341C105.054 232.341 103.577 231.966 102.327 231.216C101.077 230.466 100.107 229.417 99.4176 228.068C98.7358 226.72 98.3949 225.144 98.3949 223.341C98.3949 221.538 98.7358 219.958 99.4176 218.602C100.107 217.246 101.077 216.193 102.327 215.443C103.577 214.693 105.054 214.318 106.759 214.318C108.463 214.318 109.94 214.693 111.19 215.443C112.44 216.193 113.406 217.246 114.088 218.602C114.777 219.958 115.122 221.538 115.122 223.341C115.122 225.144 114.777 226.72 114.088 228.068C113.406 229.417 112.44 230.466 111.19 231.216C109.94 231.966 108.463 232.341 106.759 232.341ZM106.781 229.045C107.705 229.045 108.478 228.792 109.099 228.284C109.721 227.769 110.183 227.08 110.486 226.216C110.796 225.352 110.952 224.39 110.952 223.33C110.952 222.261 110.796 221.295 110.486 220.432C110.183 219.561 109.721 218.867 109.099 218.352C108.478 217.837 107.705 217.58 106.781 217.58C105.834 217.58 105.046 217.837 104.418 218.352C103.796 218.867 103.33 219.561 103.02 220.432C102.717 221.295 102.565 222.261 102.565 223.33C102.565 224.39 102.717 225.352 103.02 226.216C103.33 227.08 103.796 227.769 104.418 228.284C105.046 228.792 105.834 229.045 106.781 229.045ZM126.227 232.341C124.523 232.341 123.045 231.966 121.795 231.216C120.545 230.466 119.576 229.417 118.886 228.068C118.205 226.72 117.864 225.144 117.864 223.341C117.864 221.538 118.205 219.958 118.886 218.602C119.576 217.246 120.545 216.193 121.795 215.443C123.045 214.693 124.523 214.318 126.227 214.318C127.932 214.318 129.409 214.693 130.659 215.443C131.909 216.193 132.875 217.246 133.557 218.602C134.246 219.958 134.591 221.538 134.591 223.341C134.591 225.144 134.246 226.72 133.557 228.068C132.875 229.417 131.909 230.466 130.659 231.216C129.409 231.966 127.932 232.341 126.227 232.341ZM126.25 229.045C127.174 229.045 127.947 228.792 128.568 228.284C129.189 227.769 129.652 227.08 129.955 226.216C130.265 225.352 130.42 224.39 130.42 223.33C130.42 222.261 130.265 221.295 129.955 220.432C129.652 219.561 129.189 218.867 128.568 218.352C127.947 217.837 127.174 217.58 126.25 217.58C125.303 217.58 124.515 217.837 123.886 218.352C123.265 218.867 122.799 219.561 122.489 220.432C122.186 221.295 122.034 222.261 122.034 223.33C122.034 224.39 122.186 225.352 122.489 226.216C122.799 227.08 123.265 227.769 123.886 228.284C124.515 228.792 125.303 229.045 126.25 229.045ZM146.798 214.545V217.727H136.764V214.545H146.798ZM139.241 210.364H143.355V226.75C143.355 227.303 143.438 227.727 143.605 228.023C143.779 228.311 144.007 228.508 144.287 228.614C144.567 228.72 144.878 228.773 145.219 228.773C145.476 228.773 145.711 228.754 145.923 228.716C146.143 228.678 146.31 228.644 146.423 228.614L147.116 231.83C146.897 231.905 146.582 231.989 146.173 232.08C145.772 232.17 145.279 232.223 144.696 232.239C143.666 232.269 142.738 232.114 141.912 231.773C141.086 231.424 140.431 230.886 139.946 230.159C139.469 229.432 139.234 228.523 139.241 227.432V210.364ZM163.784 219.159L160.034 219.568C159.928 219.189 159.742 218.833 159.477 218.5C159.22 218.167 158.871 217.898 158.432 217.693C157.992 217.489 157.455 217.386 156.818 217.386C155.962 217.386 155.242 217.572 154.659 217.943C154.083 218.314 153.799 218.795 153.807 219.386C153.799 219.894 153.985 220.307 154.364 220.625C154.75 220.943 155.386 221.205 156.273 221.409L159.25 222.045C160.902 222.402 162.129 222.966 162.932 223.739C163.742 224.511 164.152 225.523 164.159 226.773C164.152 227.871 163.83 228.841 163.193 229.682C162.564 230.515 161.689 231.167 160.568 231.636C159.447 232.106 158.159 232.341 156.705 232.341C154.568 232.341 152.848 231.894 151.545 231C150.242 230.098 149.466 228.845 149.216 227.239L153.227 226.852C153.409 227.64 153.795 228.235 154.386 228.636C154.977 229.038 155.746 229.239 156.693 229.239C157.67 229.239 158.455 229.038 159.045 228.636C159.644 228.235 159.943 227.739 159.943 227.148C159.943 226.648 159.75 226.235 159.364 225.909C158.985 225.583 158.394 225.333 157.591 225.159L154.614 224.534C152.939 224.186 151.701 223.598 150.898 222.773C150.095 221.939 149.697 220.886 149.705 219.614C149.697 218.538 149.989 217.606 150.58 216.818C151.178 216.023 152.008 215.409 153.068 214.977C154.136 214.538 155.367 214.318 156.761 214.318C158.807 214.318 160.417 214.754 161.591 215.625C162.773 216.496 163.504 217.674 163.784 219.159ZM176.267 214.545V217.727H166.233V214.545H176.267ZM168.71 210.364H172.824V226.75C172.824 227.303 172.907 227.727 173.074 228.023C173.248 228.311 173.475 228.508 173.756 228.614C174.036 228.72 174.347 228.773 174.688 228.773C174.945 228.773 175.18 228.754 175.392 228.716C175.612 228.678 175.778 228.644 175.892 228.614L176.585 231.83C176.366 231.905 176.051 231.989 175.642 232.08C175.241 232.17 174.748 232.223 174.165 232.239C173.134 232.269 172.206 232.114 171.381 231.773C170.555 231.424 169.9 230.886 169.415 230.159C168.938 229.432 168.703 228.523 168.71 227.432V210.364ZM179.707 232V214.545H183.696V217.455H183.878C184.196 216.447 184.741 215.67 185.514 215.125C186.295 214.572 187.185 214.295 188.185 214.295C188.412 214.295 188.666 214.307 188.946 214.33C189.234 214.345 189.473 214.371 189.662 214.409V218.193C189.488 218.133 189.211 218.08 188.832 218.034C188.461 217.981 188.101 217.955 187.753 217.955C187.003 217.955 186.329 218.117 185.73 218.443C185.139 218.761 184.673 219.205 184.332 219.773C183.991 220.341 183.821 220.996 183.821 221.739V232H179.707ZM197.105 232.352C195.999 232.352 195.003 232.155 194.116 231.761C193.238 231.36 192.541 230.769 192.026 229.989C191.518 229.208 191.264 228.246 191.264 227.102C191.264 226.117 191.446 225.303 191.81 224.659C192.173 224.015 192.67 223.5 193.298 223.114C193.927 222.727 194.635 222.436 195.423 222.239C196.219 222.034 197.041 221.886 197.889 221.795C198.912 221.689 199.741 221.595 200.378 221.511C201.014 221.42 201.476 221.284 201.764 221.102C202.06 220.913 202.207 220.621 202.207 220.227V220.159C202.207 219.303 201.954 218.64 201.446 218.17C200.938 217.701 200.207 217.466 199.253 217.466C198.245 217.466 197.446 217.686 196.855 218.125C196.272 218.564 195.878 219.083 195.673 219.682L191.832 219.136C192.135 218.076 192.635 217.189 193.332 216.477C194.029 215.758 194.882 215.22 195.889 214.864C196.897 214.5 198.01 214.318 199.23 214.318C200.071 214.318 200.908 214.417 201.741 214.614C202.575 214.811 203.336 215.136 204.026 215.591C204.715 216.038 205.268 216.648 205.685 217.42C206.109 218.193 206.321 219.159 206.321 220.318V232H202.366V229.602H202.23C201.98 230.087 201.628 230.542 201.173 230.966C200.726 231.383 200.162 231.72 199.48 231.977C198.806 232.227 198.014 232.352 197.105 232.352ZM198.173 229.33C198.999 229.33 199.715 229.167 200.321 228.841C200.927 228.508 201.393 228.068 201.719 227.523C202.052 226.977 202.219 226.383 202.219 225.739V223.682C202.09 223.788 201.87 223.886 201.56 223.977C201.257 224.068 200.916 224.148 200.537 224.216C200.158 224.284 199.783 224.345 199.412 224.398C199.041 224.451 198.719 224.496 198.446 224.534C197.832 224.617 197.283 224.754 196.798 224.943C196.313 225.133 195.931 225.398 195.651 225.739C195.37 226.072 195.23 226.504 195.23 227.034C195.23 227.792 195.507 228.364 196.06 228.75C196.613 229.136 197.317 229.33 198.173 229.33ZM210.457 238.545V214.545H214.503V217.432H214.741C214.954 217.008 215.253 216.557 215.639 216.08C216.026 215.595 216.548 215.182 217.207 214.841C217.866 214.492 218.707 214.318 219.73 214.318C221.079 214.318 222.295 214.663 223.378 215.352C224.469 216.034 225.332 217.045 225.969 218.386C226.613 219.72 226.935 221.356 226.935 223.295C226.935 225.212 226.62 226.841 225.991 228.182C225.363 229.523 224.507 230.545 223.423 231.25C222.34 231.955 221.113 232.307 219.741 232.307C218.741 232.307 217.912 232.14 217.253 231.807C216.594 231.473 216.063 231.072 215.662 230.602C215.268 230.125 214.961 229.674 214.741 229.25H214.571V238.545H210.457ZM214.491 223.273C214.491 224.402 214.651 225.39 214.969 226.239C215.295 227.087 215.76 227.75 216.366 228.227C216.98 228.697 217.723 228.932 218.594 228.932C219.503 228.932 220.264 228.689 220.878 228.205C221.491 227.712 221.954 227.042 222.264 226.193C222.582 225.337 222.741 224.364 222.741 223.273C222.741 222.189 222.586 221.227 222.276 220.386C221.965 219.545 221.503 218.886 220.889 218.409C220.276 217.932 219.51 217.693 218.594 217.693C217.715 217.693 216.969 217.924 216.355 218.386C215.741 218.848 215.276 219.496 214.957 220.33C214.647 221.163 214.491 222.144 214.491 223.273Z" fill="#D35400"/>
<path d="M192.477 20.7273H196.659V37.0909C196.652 38.5909 196.333 39.8826 195.705 40.9659C195.076 42.0417 194.197 42.8712 193.068 43.4545C191.947 44.0303 190.64 44.3182 189.148 44.3182C187.784 44.3182 186.557 44.0758 185.466 43.5909C184.383 43.0985 183.523 42.3712 182.886 41.4091C182.25 40.447 181.932 39.25 181.932 37.8182H186.125C186.133 38.447 186.269 38.9886 186.534 39.4432C186.807 39.8977 187.182 40.2462 187.659 40.4886C188.136 40.7311 188.686 40.8523 189.307 40.8523C189.981 40.8523 190.553 40.7121 191.023 40.4318C191.492 40.1439 191.848 39.7197 192.091 39.1591C192.341 38.5985 192.47 37.9091 192.477 37.0909V20.7273ZM206.074 44.3523C204.968 44.3523 203.972 44.1553 203.085 43.7614C202.206 43.3598 201.509 42.7689 200.994 41.9886C200.487 41.2083 200.233 40.2462 200.233 39.1023C200.233 38.1174 200.415 37.303 200.778 36.6591C201.142 36.0152 201.638 35.5 202.267 35.1136C202.896 34.7273 203.604 34.4356 204.392 34.2386C205.188 34.0341 206.009 33.8864 206.858 33.7955C207.881 33.6894 208.71 33.5947 209.347 33.5114C209.983 33.4205 210.445 33.2841 210.733 33.1023C211.028 32.9129 211.176 32.6212 211.176 32.2273V32.1591C211.176 31.303 210.922 30.6402 210.415 30.1705C209.907 29.7008 209.176 29.4659 208.222 29.4659C207.214 29.4659 206.415 29.6856 205.824 30.125C205.241 30.5644 204.847 31.0833 204.642 31.6818L200.801 31.1364C201.104 30.0758 201.604 29.1894 202.301 28.4773C202.998 27.7576 203.85 27.2197 204.858 26.8636C205.866 26.5 206.979 26.3182 208.199 26.3182C209.04 26.3182 209.877 26.4167 210.71 26.6136C211.544 26.8106 212.305 27.1364 212.994 27.5909C213.684 28.0379 214.237 28.6477 214.653 29.4205C215.078 30.1932 215.29 31.1591 215.29 32.3182V44H211.335V41.6023H211.199C210.949 42.0871 210.597 42.5417 210.142 42.9659C209.695 43.3826 209.131 43.7197 208.449 43.9773C207.775 44.2273 206.983 44.3523 206.074 44.3523ZM207.142 41.3295C207.968 41.3295 208.684 41.1667 209.29 40.8409C209.896 40.5076 210.362 40.0682 210.688 39.5227C211.021 38.9773 211.188 38.3826 211.188 37.7386V35.6818C211.059 35.7879 210.839 35.8864 210.528 35.9773C210.225 36.0682 209.884 36.1477 209.506 36.2159C209.127 36.2841 208.752 36.3447 208.381 36.3977C208.009 36.4508 207.688 36.4962 207.415 36.5341C206.801 36.6174 206.252 36.7538 205.767 36.9432C205.282 37.1326 204.9 37.3977 204.619 37.7386C204.339 38.072 204.199 38.5038 204.199 39.0341C204.199 39.7917 204.475 40.3636 205.028 40.75C205.581 41.1364 206.286 41.3295 207.142 41.3295ZM234.392 26.5455L228.176 44H223.631L217.415 26.5455H221.801L225.812 39.5114H225.994L230.017 26.5455H234.392ZM241.761 44.3523C240.655 44.3523 239.659 44.1553 238.773 43.7614C237.894 43.3598 237.197 42.7689 236.682 41.9886C236.174 41.2083 235.92 40.2462 235.92 39.1023C235.92 38.1174 236.102 37.303 236.466 36.6591C236.83 36.0152 237.326 35.5 237.955 35.1136C238.583 34.7273 239.292 34.4356 240.08 34.2386C240.875 34.0341 241.697 33.8864 242.545 33.7955C243.568 33.6894 244.398 33.5947 245.034 33.5114C245.67 33.4205 246.133 33.2841 246.42 33.1023C246.716 32.9129 246.864 32.6212 246.864 32.2273V32.1591C246.864 31.303 246.61 30.6402 246.102 30.1705C245.595 29.7008 244.864 29.4659 243.909 29.4659C242.902 29.4659 242.102 29.6856 241.511 30.125C240.928 30.5644 240.534 31.0833 240.33 31.6818L236.489 31.1364C236.792 30.0758 237.292 29.1894 237.989 28.4773C238.686 27.7576 239.538 27.2197 240.545 26.8636C241.553 26.5 242.667 26.3182 243.886 26.3182C244.727 26.3182 245.564 26.4167 246.398 26.6136C247.231 26.8106 247.992 27.1364 248.682 27.5909C249.371 28.0379 249.924 28.6477 250.341 29.4205C250.765 30.1932 250.977 31.1591 250.977 32.3182V44H247.023V41.6023H246.886C246.636 42.0871 246.284 42.5417 245.83 42.9659C245.383 43.3826 244.818 43.7197 244.136 43.9773C243.462 44.2273 242.67 44.3523 241.761 44.3523ZM242.83 41.3295C243.655 41.3295 244.371 41.1667 244.977 40.8409C245.583 40.5076 246.049 40.0682 246.375 39.5227C246.708 38.9773 246.875 38.3826 246.875 37.7386V35.6818C246.746 35.7879 246.527 35.8864 246.216 35.9773C245.913 36.0682 245.572 36.1477 245.193 36.2159C244.814 36.2841 244.439 36.3447 244.068 36.3977C243.697 36.4508 243.375 36.4962 243.102 36.5341C242.489 36.6174 241.939 36.7538 241.455 36.9432C240.97 37.1326 240.587 37.3977 240.307 37.7386C240.027 38.072 239.886 38.5038 239.886 39.0341C239.886 39.7917 240.163 40.3636 240.716 40.75C241.269 41.1364 241.973 41.3295 242.83 41.3295ZM267.943 27.125C267.837 26.1326 267.39 25.3598 266.602 24.8068C265.822 24.2538 264.807 23.9773 263.557 23.9773C262.678 23.9773 261.924 24.1098 261.295 24.375C260.667 24.6402 260.186 25 259.852 25.4545C259.519 25.9091 259.348 26.428 259.341 27.0114C259.341 27.4962 259.451 27.9167 259.67 28.2727C259.898 28.6288 260.205 28.9318 260.591 29.1818C260.977 29.4242 261.405 29.6288 261.875 29.7955C262.345 29.9621 262.818 30.1023 263.295 30.2159L265.477 30.7614C266.356 30.9659 267.201 31.2424 268.011 31.5909C268.83 31.9394 269.561 32.3788 270.205 32.9091C270.856 33.4394 271.371 34.0795 271.75 34.8295C272.129 35.5795 272.318 36.4583 272.318 37.4659C272.318 38.8295 271.97 40.0303 271.273 41.0682C270.576 42.0985 269.568 42.9053 268.25 43.4886C266.939 44.0644 265.352 44.3523 263.489 44.3523C261.678 44.3523 260.106 44.072 258.773 43.5114C257.447 42.9508 256.409 42.1326 255.659 41.0568C254.917 39.9811 254.515 38.6705 254.455 37.125H258.602C258.663 37.9356 258.913 38.6098 259.352 39.1477C259.792 39.6856 260.364 40.0871 261.068 40.3523C261.78 40.6174 262.576 40.75 263.455 40.75C264.371 40.75 265.174 40.6136 265.864 40.3409C266.561 40.0606 267.106 39.6742 267.5 39.1818C267.894 38.6818 268.095 38.0985 268.102 37.4318C268.095 36.8258 267.917 36.3258 267.568 35.9318C267.22 35.5303 266.731 35.197 266.102 34.9318C265.481 34.6591 264.754 34.4167 263.92 34.2045L261.273 33.5227C259.356 33.0303 257.841 32.2841 256.727 31.2841C255.621 30.2765 255.068 28.9394 255.068 27.2727C255.068 25.9015 255.439 24.7008 256.182 23.6705C256.932 22.6402 257.951 21.8409 259.239 21.2727C260.527 20.697 261.985 20.4091 263.614 20.4091C265.265 20.4091 266.712 20.697 267.955 21.2727C269.205 21.8409 270.186 22.6326 270.898 23.6477C271.61 24.6553 271.977 25.8144 272 27.125H267.943ZM283.509 44.3409C281.766 44.3409 280.27 43.9583 279.02 43.1932C277.777 42.428 276.819 41.3712 276.145 40.0227C275.478 38.6667 275.145 37.1061 275.145 35.3409C275.145 33.5682 275.486 32.0038 276.168 30.6477C276.849 29.2841 277.812 28.2235 279.054 27.4659C280.304 26.7008 281.781 26.3182 283.486 26.3182C284.902 26.3182 286.156 26.5795 287.247 27.1023C288.346 27.6174 289.221 28.3485 289.872 29.2955C290.524 30.2348 290.895 31.3333 290.986 32.5909H287.054C286.895 31.75 286.516 31.0492 285.918 30.4886C285.327 29.9205 284.535 29.6364 283.543 29.6364C282.702 29.6364 281.963 29.8636 281.327 30.3182C280.69 30.7652 280.194 31.4091 279.838 32.25C279.49 33.0909 279.315 34.0985 279.315 35.2727C279.315 36.4621 279.49 37.4848 279.838 38.3409C280.187 39.1894 280.675 39.8447 281.304 40.3068C281.94 40.7614 282.687 40.9886 283.543 40.9886C284.149 40.9886 284.69 40.875 285.168 40.6477C285.652 40.4129 286.058 40.0758 286.384 39.6364C286.709 39.197 286.933 38.6629 287.054 38.0341H290.986C290.887 39.2689 290.524 40.3636 289.895 41.3182C289.266 42.2652 288.41 43.0076 287.327 43.5455C286.243 44.0758 284.971 44.3409 283.509 44.3409ZM294.364 44V26.5455H298.352V29.4545H298.534C298.852 28.447 299.398 27.6705 300.17 27.125C300.951 26.572 301.841 26.2955 302.841 26.2955C303.068 26.2955 303.322 26.3068 303.602 26.3295C303.89 26.3447 304.129 26.3712 304.318 26.4091V30.1932C304.144 30.1326 303.867 30.0795 303.489 30.0341C303.117 29.9811 302.758 29.9545 302.409 29.9545C301.659 29.9545 300.985 30.1174 300.386 30.4432C299.795 30.7614 299.33 31.2045 298.989 31.7727C298.648 32.3409 298.477 32.9962 298.477 33.7386V44H294.364ZM307.051 44V26.5455H311.165V44H307.051ZM309.119 24.0682C308.468 24.0682 307.907 23.8523 307.438 23.4205C306.968 22.9811 306.733 22.4545 306.733 21.8409C306.733 21.2197 306.968 20.6932 307.438 20.2614C307.907 19.822 308.468 19.6023 309.119 19.6023C309.778 19.6023 310.339 19.822 310.801 20.2614C311.271 20.6932 311.506 21.2197 311.506 21.8409C311.506 22.4545 311.271 22.9811 310.801 23.4205C310.339 23.8523 309.778 24.0682 309.119 24.0682ZM315.395 50.5455V26.5455H319.44V29.4318H319.679C319.891 29.0076 320.19 28.5568 320.577 28.0795C320.963 27.5947 321.486 27.1818 322.145 26.8409C322.804 26.4924 323.645 26.3182 324.668 26.3182C326.016 26.3182 327.232 26.6629 328.315 27.3523C329.406 28.0341 330.27 29.0455 330.906 30.3864C331.55 31.7197 331.872 33.3561 331.872 35.2955C331.872 37.2121 331.558 38.8409 330.929 40.1818C330.3 41.5227 329.444 42.5455 328.361 43.25C327.277 43.9545 326.05 44.3068 324.679 44.3068C323.679 44.3068 322.849 44.1402 322.19 43.8068C321.531 43.4735 321.001 43.072 320.599 42.6023C320.205 42.125 319.899 41.6742 319.679 41.25H319.509V50.5455H315.395ZM319.429 35.2727C319.429 36.4015 319.588 37.3902 319.906 38.2386C320.232 39.0871 320.698 39.75 321.304 40.2273C321.918 40.697 322.66 40.9318 323.531 40.9318C324.44 40.9318 325.202 40.6894 325.815 40.2045C326.429 39.7121 326.891 39.0417 327.202 38.1932C327.52 37.3371 327.679 36.3636 327.679 35.2727C327.679 34.1894 327.524 33.2273 327.213 32.3864C326.902 31.5455 326.44 30.8864 325.827 30.4091C325.213 29.9318 324.448 29.6932 323.531 29.6932C322.652 29.6932 321.906 29.9242 321.293 30.3864C320.679 30.8485 320.213 31.4962 319.895 32.3295C319.584 33.1629 319.429 34.1439 319.429 35.2727ZM344.111 26.5455V29.7273H334.077V26.5455H344.111ZM336.554 22.3636H340.668V38.75C340.668 39.303 340.751 39.7273 340.918 40.0227C341.092 40.3106 341.319 40.5076 341.599 40.6136C341.88 40.7197 342.19 40.7727 342.531 40.7727C342.789 40.7727 343.024 40.7538 343.236 40.7159C343.455 40.678 343.622 40.6439 343.736 40.6136L344.429 43.8295C344.209 43.9053 343.895 43.9886 343.486 44.0795C343.084 44.1705 342.592 44.2235 342.009 44.2386C340.978 44.2689 340.05 44.1136 339.224 43.7727C338.399 43.4242 337.743 42.8864 337.259 42.1591C336.781 41.4318 336.546 40.5227 336.554 39.4318V22.3636Z" fill="#D35400"/>
<path d="M279.943 331.125C279.837 330.133 279.39 329.36 278.602 328.807C277.822 328.254 276.807 327.977 275.557 327.977C274.678 327.977 273.924 328.11 273.295 328.375C272.667 328.64 272.186 329 271.852 329.455C271.519 329.909 271.348 330.428 271.341 331.011C271.341 331.496 271.451 331.917 271.67 332.273C271.898 332.629 272.205 332.932 272.591 333.182C272.977 333.424 273.405 333.629 273.875 333.795C274.345 333.962 274.818 334.102 275.295 334.216L277.477 334.761C278.356 334.966 279.201 335.242 280.011 335.591C280.83 335.939 281.561 336.379 282.205 336.909C282.856 337.439 283.371 338.08 283.75 338.83C284.129 339.58 284.318 340.458 284.318 341.466C284.318 342.83 283.97 344.03 283.273 345.068C282.576 346.098 281.568 346.905 280.25 347.489C278.939 348.064 277.352 348.352 275.489 348.352C273.678 348.352 272.106 348.072 270.773 347.511C269.447 346.951 268.409 346.133 267.659 345.057C266.917 343.981 266.515 342.67 266.455 341.125H270.602C270.663 341.936 270.913 342.61 271.352 343.148C271.792 343.686 272.364 344.087 273.068 344.352C273.78 344.617 274.576 344.75 275.455 344.75C276.371 344.75 277.174 344.614 277.864 344.341C278.561 344.061 279.106 343.674 279.5 343.182C279.894 342.682 280.095 342.098 280.102 341.432C280.095 340.826 279.917 340.326 279.568 339.932C279.22 339.53 278.731 339.197 278.102 338.932C277.481 338.659 276.754 338.417 275.92 338.205L273.273 337.523C271.356 337.03 269.841 336.284 268.727 335.284C267.621 334.277 267.068 332.939 267.068 331.273C267.068 329.902 267.439 328.701 268.182 327.67C268.932 326.64 269.951 325.841 271.239 325.273C272.527 324.697 273.985 324.409 275.614 324.409C277.265 324.409 278.712 324.697 279.955 325.273C281.205 325.841 282.186 326.633 282.898 327.648C283.61 328.655 283.977 329.814 284 331.125H279.943ZM290.69 348H286.19L294.384 324.727H299.588L307.793 348H303.293L297.077 329.5H296.895L290.69 348ZM290.838 338.875H303.111V342.261H290.838V338.875ZM323.131 331.125C323.025 330.133 322.578 329.36 321.79 328.807C321.009 328.254 319.994 327.977 318.744 327.977C317.866 327.977 317.112 328.11 316.483 328.375C315.854 328.64 315.373 329 315.04 329.455C314.706 329.909 314.536 330.428 314.528 331.011C314.528 331.496 314.638 331.917 314.858 332.273C315.085 332.629 315.392 332.932 315.778 333.182C316.165 333.424 316.593 333.629 317.062 333.795C317.532 333.962 318.006 334.102 318.483 334.216L320.665 334.761C321.544 334.966 322.388 335.242 323.199 335.591C324.017 335.939 324.748 336.379 325.392 336.909C326.044 337.439 326.559 338.08 326.938 338.83C327.316 339.58 327.506 340.458 327.506 341.466C327.506 342.83 327.157 344.03 326.46 345.068C325.763 346.098 324.756 346.905 323.438 347.489C322.127 348.064 320.54 348.352 318.676 348.352C316.866 348.352 315.294 348.072 313.96 347.511C312.634 346.951 311.597 346.133 310.847 345.057C310.104 343.981 309.703 342.67 309.642 341.125H313.79C313.85 341.936 314.1 342.61 314.54 343.148C314.979 343.686 315.551 344.087 316.256 344.352C316.968 344.617 317.763 344.75 318.642 344.75C319.559 344.75 320.362 344.614 321.051 344.341C321.748 344.061 322.294 343.674 322.688 343.182C323.081 342.682 323.282 342.098 323.29 341.432C323.282 340.826 323.104 340.326 322.756 339.932C322.407 339.53 321.919 339.197 321.29 338.932C320.669 338.659 319.941 338.417 319.108 338.205L316.46 337.523C314.544 337.03 313.028 336.284 311.915 335.284C310.809 334.277 310.256 332.939 310.256 331.273C310.256 329.902 310.627 328.701 311.369 327.67C312.119 326.64 313.138 325.841 314.426 325.273C315.714 324.697 317.172 324.409 318.801 324.409C320.453 324.409 321.9 324.697 323.142 325.273C324.392 325.841 325.373 326.633 326.085 327.648C326.797 328.655 327.165 329.814 327.188 331.125H323.131ZM343.912 331.125C343.806 330.133 343.359 329.36 342.571 328.807C341.791 328.254 340.776 327.977 339.526 327.977C338.647 327.977 337.893 328.11 337.264 328.375C336.635 328.64 336.154 329 335.821 329.455C335.488 329.909 335.317 330.428 335.31 331.011C335.31 331.496 335.42 331.917 335.639 332.273C335.866 332.629 336.173 332.932 336.56 333.182C336.946 333.424 337.374 333.629 337.844 333.795C338.313 333.962 338.787 334.102 339.264 334.216L341.446 334.761C342.325 334.966 343.17 335.242 343.98 335.591C344.798 335.939 345.529 336.379 346.173 336.909C346.825 337.439 347.34 338.08 347.719 338.83C348.098 339.58 348.287 340.458 348.287 341.466C348.287 342.83 347.938 344.03 347.241 345.068C346.545 346.098 345.537 346.905 344.219 347.489C342.908 348.064 341.321 348.352 339.457 348.352C337.647 348.352 336.075 348.072 334.741 347.511C333.416 346.951 332.378 346.133 331.628 345.057C330.885 343.981 330.484 342.67 330.423 341.125H334.571C334.632 341.936 334.882 342.61 335.321 343.148C335.76 343.686 336.332 344.087 337.037 344.352C337.749 344.617 338.545 344.75 339.423 344.75C340.34 344.75 341.143 344.614 341.832 344.341C342.529 344.061 343.075 343.674 343.469 343.182C343.863 342.682 344.063 342.098 344.071 341.432C344.063 340.826 343.885 340.326 343.537 339.932C343.188 339.53 342.7 339.197 342.071 338.932C341.45 338.659 340.723 338.417 339.889 338.205L337.241 337.523C335.325 337.03 333.81 336.284 332.696 335.284C331.59 334.277 331.037 332.939 331.037 331.273C331.037 329.902 331.408 328.701 332.151 327.67C332.901 326.64 333.92 325.841 335.207 325.273C336.495 324.697 337.954 324.409 339.582 324.409C341.234 324.409 342.681 324.697 343.923 325.273C345.173 325.841 346.154 326.633 346.866 327.648C347.579 328.655 347.946 329.814 347.969 331.125H343.912Z" fill="#D35400"/>
<path d="M106.295 303V279.727H115.023C116.811 279.727 118.311 280.061 119.523 280.727C120.742 281.394 121.663 282.311 122.284 283.477C122.913 284.636 123.227 285.955 123.227 287.432C123.227 288.924 122.913 290.25 122.284 291.409C121.655 292.568 120.727 293.481 119.5 294.148C118.273 294.807 116.761 295.136 114.966 295.136H109.182V291.67H114.398C115.443 291.67 116.299 291.489 116.966 291.125C117.633 290.761 118.125 290.261 118.443 289.625C118.769 288.989 118.932 288.258 118.932 287.432C118.932 286.606 118.769 285.879 118.443 285.25C118.125 284.621 117.629 284.133 116.955 283.784C116.288 283.428 115.428 283.25 114.375 283.25H110.511V303H106.295ZM129.264 309.545C128.704 309.545 128.185 309.5 127.707 309.409C127.238 309.326 126.863 309.227 126.582 309.114L127.537 305.909C128.135 306.083 128.67 306.167 129.139 306.159C129.609 306.152 130.022 306.004 130.378 305.716C130.741 305.436 131.048 304.966 131.298 304.307L131.651 303.364L125.321 285.545H129.685L133.707 298.727H133.889L137.923 285.545H142.298L135.31 305.114C134.984 306.038 134.552 306.83 134.014 307.489C133.476 308.155 132.817 308.663 132.037 309.011C131.264 309.367 130.34 309.545 129.264 309.545ZM153.861 285.545V288.727H143.827V285.545H153.861ZM146.304 281.364H150.418V297.75C150.418 298.303 150.501 298.727 150.668 299.023C150.842 299.311 151.069 299.508 151.349 299.614C151.63 299.72 151.94 299.773 152.281 299.773C152.539 299.773 152.774 299.754 152.986 299.716C153.205 299.678 153.372 299.644 153.486 299.614L154.179 302.83C153.959 302.905 153.645 302.989 153.236 303.08C152.834 303.17 152.342 303.223 151.759 303.239C150.728 303.269 149.8 303.114 148.974 302.773C148.149 302.424 147.493 301.886 147.009 301.159C146.531 300.432 146.296 299.523 146.304 298.432V281.364ZM161.79 292.773V303H157.676V279.727H161.699V288.511H161.903C162.313 287.527 162.945 286.75 163.801 286.182C164.665 285.606 165.763 285.318 167.097 285.318C168.309 285.318 169.366 285.572 170.267 286.08C171.169 286.587 171.866 287.33 172.358 288.307C172.858 289.284 173.108 290.477 173.108 291.886V303H168.994V292.523C168.994 291.348 168.691 290.436 168.085 289.784C167.487 289.125 166.646 288.795 165.562 288.795C164.835 288.795 164.184 288.955 163.608 289.273C163.04 289.583 162.593 290.034 162.267 290.625C161.949 291.216 161.79 291.932 161.79 292.773ZM184.915 303.341C183.21 303.341 181.733 302.966 180.483 302.216C179.233 301.466 178.263 300.417 177.574 299.068C176.892 297.72 176.551 296.144 176.551 294.341C176.551 292.538 176.892 290.958 177.574 289.602C178.263 288.246 179.233 287.193 180.483 286.443C181.733 285.693 183.21 285.318 184.915 285.318C186.619 285.318 188.097 285.693 189.347 286.443C190.597 287.193 191.563 288.246 192.244 289.602C192.934 290.958 193.278 292.538 193.278 294.341C193.278 296.144 192.934 297.72 192.244 299.068C191.563 300.417 190.597 301.466 189.347 302.216C188.097 302.966 186.619 303.341 184.915 303.341ZM184.938 300.045C185.862 300.045 186.634 299.792 187.256 299.284C187.877 298.769 188.339 298.08 188.642 297.216C188.953 296.352 189.108 295.39 189.108 294.33C189.108 293.261 188.953 292.295 188.642 291.432C188.339 290.561 187.877 289.867 187.256 289.352C186.634 288.837 185.862 288.58 184.938 288.58C183.991 288.58 183.203 288.837 182.574 289.352C181.953 289.867 181.487 290.561 181.176 291.432C180.873 292.295 180.722 293.261 180.722 294.33C180.722 295.39 180.873 296.352 181.176 297.216C181.487 298.08 181.953 298.769 182.574 299.284C183.203 299.792 183.991 300.045 184.938 300.045ZM200.884 292.773V303H196.77V285.545H200.702V288.511H200.906C201.308 287.534 201.948 286.758 202.827 286.182C203.713 285.606 204.808 285.318 206.111 285.318C207.315 285.318 208.365 285.576 209.259 286.091C210.16 286.606 210.857 287.352 211.349 288.33C211.849 289.307 212.096 290.492 212.088 291.886V303H207.974V292.523C207.974 291.356 207.671 290.443 207.065 289.784C206.467 289.125 205.637 288.795 204.577 288.795C203.857 288.795 203.217 288.955 202.656 289.273C202.103 289.583 201.668 290.034 201.349 290.625C201.039 291.216 200.884 291.932 200.884 292.773Z" fill="white"/>
<path d="M289.182 272H281.295V248.727H289.341C291.652 248.727 293.636 249.193 295.295 250.125C296.962 251.049 298.242 252.379 299.136 254.114C300.03 255.848 300.477 257.924 300.477 260.341C300.477 262.765 300.027 264.848 299.125 266.591C298.231 268.333 296.939 269.67 295.25 270.602C293.568 271.534 291.545 272 289.182 272ZM285.511 268.352H288.977C290.598 268.352 291.951 268.057 293.034 267.466C294.117 266.867 294.932 265.977 295.477 264.795C296.023 263.606 296.295 262.121 296.295 260.341C296.295 258.561 296.023 257.083 295.477 255.909C294.932 254.727 294.125 253.845 293.057 253.261C291.996 252.67 290.678 252.375 289.102 252.375H285.511V268.352ZM304.301 254.545H308.415V273C308.415 274.258 308.176 275.295 307.699 276.114C307.222 276.932 306.532 277.542 305.631 277.943C304.729 278.345 303.634 278.545 302.347 278.545C302.195 278.545 302.055 278.542 301.926 278.534C301.797 278.534 301.657 278.53 301.506 278.523V275.17C301.619 275.178 301.722 275.182 301.812 275.182C301.903 275.189 301.998 275.193 302.097 275.193C302.884 275.193 303.449 275 303.79 274.614C304.131 274.235 304.301 273.678 304.301 272.943V254.545ZM306.347 252.068C305.688 252.068 305.123 251.852 304.653 251.42C304.191 250.981 303.96 250.455 303.96 249.841C303.96 249.22 304.191 248.693 304.653 248.261C305.123 247.822 305.688 247.602 306.347 247.602C306.998 247.602 307.555 247.822 308.017 248.261C308.487 248.693 308.722 249.22 308.722 249.841C308.722 250.455 308.487 250.981 308.017 251.42C307.555 251.852 306.998 252.068 306.347 252.068ZM317.668 272.352C316.562 272.352 315.565 272.155 314.679 271.761C313.8 271.36 313.103 270.769 312.588 269.989C312.08 269.208 311.827 268.246 311.827 267.102C311.827 266.117 312.009 265.303 312.372 264.659C312.736 264.015 313.232 263.5 313.861 263.114C314.49 262.727 315.198 262.436 315.986 262.239C316.781 262.034 317.603 261.886 318.452 261.795C319.474 261.689 320.304 261.595 320.94 261.511C321.577 261.42 322.039 261.284 322.327 261.102C322.622 260.913 322.77 260.621 322.77 260.227V260.159C322.77 259.303 322.516 258.64 322.009 258.17C321.501 257.701 320.77 257.466 319.815 257.466C318.808 257.466 318.009 257.686 317.418 258.125C316.834 258.564 316.44 259.083 316.236 259.682L312.395 259.136C312.698 258.076 313.198 257.189 313.895 256.477C314.592 255.758 315.444 255.22 316.452 254.864C317.459 254.5 318.573 254.318 319.793 254.318C320.634 254.318 321.471 254.417 322.304 254.614C323.137 254.811 323.899 255.136 324.588 255.591C325.277 256.038 325.83 256.648 326.247 257.42C326.671 258.193 326.884 259.159 326.884 260.318V272H322.929V269.602H322.793C322.543 270.087 322.19 270.542 321.736 270.966C321.289 271.383 320.724 271.72 320.043 271.977C319.368 272.227 318.577 272.352 317.668 272.352ZM318.736 269.33C319.562 269.33 320.277 269.167 320.884 268.841C321.49 268.508 321.955 268.068 322.281 267.523C322.615 266.977 322.781 266.383 322.781 265.739V263.682C322.652 263.788 322.433 263.886 322.122 263.977C321.819 264.068 321.478 264.148 321.099 264.216C320.721 264.284 320.346 264.345 319.974 264.398C319.603 264.451 319.281 264.496 319.009 264.534C318.395 264.617 317.846 264.754 317.361 264.943C316.876 265.133 316.493 265.398 316.213 265.739C315.933 266.072 315.793 266.504 315.793 267.034C315.793 267.792 316.069 268.364 316.622 268.75C317.175 269.136 317.88 269.33 318.736 269.33ZM335.134 261.773V272H331.02V254.545H334.952V257.511H335.156C335.558 256.534 336.198 255.758 337.077 255.182C337.963 254.606 339.058 254.318 340.361 254.318C341.565 254.318 342.615 254.576 343.509 255.091C344.41 255.606 345.107 256.352 345.599 257.33C346.099 258.307 346.346 259.492 346.338 260.886V272H342.224V261.523C342.224 260.356 341.921 259.443 341.315 258.784C340.717 258.125 339.887 257.795 338.827 257.795C338.107 257.795 337.467 257.955 336.906 258.273C336.353 258.583 335.918 259.034 335.599 259.625C335.289 260.216 335.134 260.932 335.134 261.773ZM358.111 278.909C356.634 278.909 355.365 278.708 354.304 278.307C353.243 277.913 352.391 277.383 351.747 276.716C351.103 276.049 350.656 275.311 350.406 274.5L354.111 273.602C354.277 273.943 354.52 274.28 354.838 274.614C355.156 274.955 355.584 275.235 356.122 275.455C356.668 275.682 357.353 275.795 358.179 275.795C359.346 275.795 360.312 275.511 361.077 274.943C361.842 274.383 362.224 273.458 362.224 272.17V268.864H362.02C361.808 269.288 361.497 269.723 361.088 270.17C360.687 270.617 360.152 270.992 359.486 271.295C358.827 271.598 357.997 271.75 356.997 271.75C355.656 271.75 354.44 271.436 353.349 270.807C352.266 270.17 351.402 269.223 350.759 267.966C350.122 266.701 349.804 265.117 349.804 263.216C349.804 261.299 350.122 259.682 350.759 258.364C351.402 257.038 352.27 256.034 353.361 255.352C354.452 254.663 355.668 254.318 357.009 254.318C358.031 254.318 358.872 254.492 359.531 254.841C360.198 255.182 360.728 255.595 361.122 256.08C361.516 256.557 361.815 257.008 362.02 257.432H362.247V254.545H366.304V272.284C366.304 273.777 365.948 275.011 365.236 275.989C364.524 276.966 363.55 277.697 362.315 278.182C361.08 278.667 359.679 278.909 358.111 278.909ZM358.145 268.523C359.016 268.523 359.759 268.311 360.372 267.886C360.986 267.462 361.452 266.852 361.77 266.057C362.088 265.261 362.247 264.307 362.247 263.193C362.247 262.095 362.088 261.133 361.77 260.307C361.459 259.481 360.997 258.841 360.384 258.386C359.777 257.924 359.031 257.693 358.145 257.693C357.228 257.693 356.463 257.932 355.849 258.409C355.236 258.886 354.774 259.542 354.463 260.375C354.152 261.201 353.997 262.14 353.997 263.193C353.997 264.261 354.152 265.197 354.463 266C354.781 266.795 355.247 267.417 355.861 267.864C356.482 268.303 357.243 268.523 358.145 268.523ZM378.134 272.341C376.429 272.341 374.952 271.966 373.702 271.216C372.452 270.466 371.482 269.417 370.793 268.068C370.111 266.72 369.77 265.144 369.77 263.341C369.77 261.538 370.111 259.958 370.793 258.602C371.482 257.246 372.452 256.193 373.702 255.443C374.952 254.693 376.429 254.318 378.134 254.318C379.838 254.318 381.315 254.693 382.565 255.443C383.815 256.193 384.781 257.246 385.463 258.602C386.152 259.958 386.497 261.538 386.497 263.341C386.497 265.144 386.152 266.72 385.463 268.068C384.781 269.417 383.815 270.466 382.565 271.216C381.315 271.966 379.838 272.341 378.134 272.341ZM378.156 269.045C379.08 269.045 379.853 268.792 380.474 268.284C381.096 267.769 381.558 267.08 381.861 266.216C382.171 265.352 382.327 264.39 382.327 263.33C382.327 262.261 382.171 261.295 381.861 260.432C381.558 259.561 381.096 258.867 380.474 258.352C379.853 257.837 379.08 257.58 378.156 257.58C377.209 257.58 376.421 257.837 375.793 258.352C375.171 258.867 374.705 259.561 374.395 260.432C374.092 261.295 373.94 262.261 373.94 263.33C373.94 264.39 374.092 265.352 374.395 266.216C374.705 267.08 375.171 267.769 375.793 268.284C376.421 268.792 377.209 269.045 378.156 269.045Z" fill="white"/>
<path d="M218.477 389.727H222.659V406.091C222.652 407.591 222.333 408.883 221.705 409.966C221.076 411.042 220.197 411.871 219.068 412.455C217.947 413.03 216.64 413.318 215.148 413.318C213.784 413.318 212.557 413.076 211.466 412.591C210.383 412.098 209.523 411.371 208.886 410.409C208.25 409.447 207.932 408.25 207.932 406.818H212.125C212.133 407.447 212.269 407.989 212.534 408.443C212.807 408.898 213.182 409.246 213.659 409.489C214.136 409.731 214.686 409.852 215.307 409.852C215.981 409.852 216.553 409.712 217.023 409.432C217.492 409.144 217.848 408.72 218.091 408.159C218.341 407.598 218.47 406.909 218.477 406.091V389.727ZM232.074 413.352C230.968 413.352 229.972 413.155 229.085 412.761C228.206 412.36 227.509 411.769 226.994 410.989C226.487 410.208 226.233 409.246 226.233 408.102C226.233 407.117 226.415 406.303 226.778 405.659C227.142 405.015 227.638 404.5 228.267 404.114C228.896 403.727 229.604 403.436 230.392 403.239C231.188 403.034 232.009 402.886 232.858 402.795C233.881 402.689 234.71 402.595 235.347 402.511C235.983 402.42 236.445 402.284 236.733 402.102C237.028 401.913 237.176 401.621 237.176 401.227V401.159C237.176 400.303 236.922 399.64 236.415 399.17C235.907 398.701 235.176 398.466 234.222 398.466C233.214 398.466 232.415 398.686 231.824 399.125C231.241 399.564 230.847 400.083 230.642 400.682L226.801 400.136C227.104 399.076 227.604 398.189 228.301 397.477C228.998 396.758 229.85 396.22 230.858 395.864C231.866 395.5 232.979 395.318 234.199 395.318C235.04 395.318 235.877 395.417 236.71 395.614C237.544 395.811 238.305 396.136 238.994 396.591C239.684 397.038 240.237 397.648 240.653 398.42C241.078 399.193 241.29 400.159 241.29 401.318V413H237.335V410.602H237.199C236.949 411.087 236.597 411.542 236.142 411.966C235.695 412.383 235.131 412.72 234.449 412.977C233.775 413.227 232.983 413.352 232.074 413.352ZM233.142 410.33C233.968 410.33 234.684 410.167 235.29 409.841C235.896 409.508 236.362 409.068 236.688 408.523C237.021 407.977 237.188 407.383 237.188 406.739V404.682C237.059 404.788 236.839 404.886 236.528 404.977C236.225 405.068 235.884 405.148 235.506 405.216C235.127 405.284 234.752 405.345 234.381 405.398C234.009 405.451 233.688 405.496 233.415 405.534C232.801 405.617 232.252 405.754 231.767 405.943C231.282 406.133 230.9 406.398 230.619 406.739C230.339 407.072 230.199 407.504 230.199 408.034C230.199 408.792 230.475 409.364 231.028 409.75C231.581 410.136 232.286 410.33 233.142 410.33ZM260.392 395.545L254.176 413H249.631L243.415 395.545H247.801L251.812 408.511H251.994L256.017 395.545H260.392ZM267.761 413.352C266.655 413.352 265.659 413.155 264.773 412.761C263.894 412.36 263.197 411.769 262.682 410.989C262.174 410.208 261.92 409.246 261.92 408.102C261.92 407.117 262.102 406.303 262.466 405.659C262.83 405.015 263.326 404.5 263.955 404.114C264.583 403.727 265.292 403.436 266.08 403.239C266.875 403.034 267.697 402.886 268.545 402.795C269.568 402.689 270.398 402.595 271.034 402.511C271.67 402.42 272.133 402.284 272.42 402.102C272.716 401.913 272.864 401.621 272.864 401.227V401.159C272.864 400.303 272.61 399.64 272.102 399.17C271.595 398.701 270.864 398.466 269.909 398.466C268.902 398.466 268.102 398.686 267.511 399.125C266.928 399.564 266.534 400.083 266.33 400.682L262.489 400.136C262.792 399.076 263.292 398.189 263.989 397.477C264.686 396.758 265.538 396.22 266.545 395.864C267.553 395.5 268.667 395.318 269.886 395.318C270.727 395.318 271.564 395.417 272.398 395.614C273.231 395.811 273.992 396.136 274.682 396.591C275.371 397.038 275.924 397.648 276.341 398.42C276.765 399.193 276.977 400.159 276.977 401.318V413H273.023V410.602H272.886C272.636 411.087 272.284 411.542 271.83 411.966C271.383 412.383 270.818 412.72 270.136 412.977C269.462 413.227 268.67 413.352 267.761 413.352ZM268.83 410.33C269.655 410.33 270.371 410.167 270.977 409.841C271.583 409.508 272.049 409.068 272.375 408.523C272.708 407.977 272.875 407.383 272.875 406.739V404.682C272.746 404.788 272.527 404.886 272.216 404.977C271.913 405.068 271.572 405.148 271.193 405.216C270.814 405.284 270.439 405.345 270.068 405.398C269.697 405.451 269.375 405.496 269.102 405.534C268.489 405.617 267.939 405.754 267.455 405.943C266.97 406.133 266.587 406.398 266.307 406.739C266.027 407.072 265.886 407.504 265.886 408.034C265.886 408.792 266.163 409.364 266.716 409.75C267.269 410.136 267.973 410.33 268.83 410.33Z" fill="white"/>
<path d="M407.295 305.727H412.455L419.364 322.591H419.636L426.545 305.727H431.705V329H427.659V313.011H427.443L421.011 328.932H417.989L411.557 312.977H411.341V329H407.295V305.727ZM438.67 335.545C438.11 335.545 437.591 335.5 437.114 335.409C436.644 335.326 436.269 335.227 435.989 335.114L436.943 331.909C437.542 332.083 438.076 332.167 438.545 332.159C439.015 332.152 439.428 332.004 439.784 331.716C440.148 331.436 440.455 330.966 440.705 330.307L441.057 329.364L434.727 311.545H439.091L443.114 324.727H443.295L447.33 311.545H451.705L444.716 331.114C444.39 332.038 443.958 332.83 443.42 333.489C442.883 334.155 442.223 334.663 441.443 335.011C440.67 335.367 439.746 335.545 438.67 335.545ZM467.381 312.125C467.275 311.133 466.828 310.36 466.04 309.807C465.259 309.254 464.244 308.977 462.994 308.977C462.116 308.977 461.362 309.11 460.733 309.375C460.104 309.64 459.623 310 459.29 310.455C458.956 310.909 458.786 311.428 458.778 312.011C458.778 312.496 458.888 312.917 459.108 313.273C459.335 313.629 459.642 313.932 460.028 314.182C460.415 314.424 460.843 314.629 461.312 314.795C461.782 314.962 462.256 315.102 462.733 315.216L464.915 315.761C465.794 315.966 466.638 316.242 467.449 316.591C468.267 316.939 468.998 317.379 469.642 317.909C470.294 318.439 470.809 319.08 471.188 319.83C471.566 320.58 471.756 321.458 471.756 322.466C471.756 323.83 471.407 325.03 470.71 326.068C470.013 327.098 469.006 327.905 467.688 328.489C466.377 329.064 464.79 329.352 462.926 329.352C461.116 329.352 459.544 329.072 458.21 328.511C456.884 327.951 455.847 327.133 455.097 326.057C454.354 324.981 453.953 323.67 453.892 322.125H458.04C458.1 322.936 458.35 323.61 458.79 324.148C459.229 324.686 459.801 325.087 460.506 325.352C461.218 325.617 462.013 325.75 462.892 325.75C463.809 325.75 464.612 325.614 465.301 325.341C465.998 325.061 466.544 324.674 466.938 324.182C467.331 323.682 467.532 323.098 467.54 322.432C467.532 321.826 467.354 321.326 467.006 320.932C466.657 320.53 466.169 320.197 465.54 319.932C464.919 319.659 464.191 319.417 463.358 319.205L460.71 318.523C458.794 318.03 457.278 317.284 456.165 316.284C455.059 315.277 454.506 313.939 454.506 312.273C454.506 310.902 454.877 309.701 455.619 308.67C456.369 307.64 457.388 306.841 458.676 306.273C459.964 305.697 461.422 305.409 463.051 305.409C464.703 305.409 466.15 305.697 467.392 306.273C468.642 306.841 469.623 307.633 470.335 308.648C471.047 309.655 471.415 310.814 471.438 312.125H467.381ZM484.185 321.182H488.003L490.264 324.114L491.878 326.023L495.753 331H491.662L489.026 327.659L487.901 326.068L484.185 321.182ZM496.31 317.364C496.31 319.871 495.84 322.019 494.901 323.807C493.969 325.587 492.696 326.951 491.082 327.898C489.476 328.845 487.654 329.318 485.616 329.318C483.579 329.318 481.753 328.845 480.139 327.898C478.533 326.943 477.26 325.576 476.321 323.795C475.389 322.008 474.923 319.864 474.923 317.364C474.923 314.856 475.389 312.712 476.321 310.932C477.26 309.144 478.533 307.777 480.139 306.83C481.753 305.883 483.579 305.409 485.616 305.409C487.654 305.409 489.476 305.883 491.082 306.83C492.696 307.777 493.969 309.144 494.901 310.932C495.84 312.712 496.31 314.856 496.31 317.364ZM492.071 317.364C492.071 315.598 491.795 314.11 491.241 312.898C490.696 311.678 489.938 310.758 488.969 310.136C487.999 309.508 486.882 309.193 485.616 309.193C484.351 309.193 483.234 309.508 482.264 310.136C481.295 310.758 480.533 311.678 479.98 312.898C479.435 314.11 479.162 315.598 479.162 317.364C479.162 319.129 479.435 320.621 479.98 321.841C480.533 323.053 481.295 323.973 482.264 324.602C483.234 325.223 484.351 325.534 485.616 325.534C486.882 325.534 487.999 325.223 488.969 324.602C489.938 323.973 490.696 323.053 491.241 321.841C491.795 320.621 492.071 319.129 492.071 317.364ZM500.327 329V305.727H504.543V325.466H514.793V329H500.327Z" fill="#D35400"/>
<path d="M348.42 90.7273V114H344.67L333.705 98.1477H333.511V114H329.295V90.7273H333.068L344.023 106.591H344.227V90.7273H348.42ZM360.446 114.341C358.741 114.341 357.264 113.966 356.014 113.216C354.764 112.466 353.795 111.417 353.105 110.068C352.423 108.72 352.082 107.144 352.082 105.341C352.082 103.538 352.423 101.958 353.105 100.602C353.795 99.2462 354.764 98.1932 356.014 97.4432C357.264 96.6932 358.741 96.3182 360.446 96.3182C362.151 96.3182 363.628 96.6932 364.878 97.4432C366.128 98.1932 367.094 99.2462 367.776 100.602C368.465 101.958 368.81 103.538 368.81 105.341C368.81 107.144 368.465 108.72 367.776 110.068C367.094 111.417 366.128 112.466 364.878 113.216C363.628 113.966 362.151 114.341 360.446 114.341ZM360.469 111.045C361.393 111.045 362.166 110.792 362.787 110.284C363.408 109.769 363.87 109.08 364.173 108.216C364.484 107.352 364.639 106.39 364.639 105.33C364.639 104.261 364.484 103.295 364.173 102.432C363.87 101.561 363.408 100.867 362.787 100.352C362.166 99.8371 361.393 99.5795 360.469 99.5795C359.522 99.5795 358.734 99.8371 358.105 100.352C357.484 100.867 357.018 101.561 356.707 102.432C356.404 103.295 356.253 104.261 356.253 105.33C356.253 106.39 356.404 107.352 356.707 108.216C357.018 109.08 357.484 109.769 358.105 110.284C358.734 110.792 359.522 111.045 360.469 111.045ZM378.778 114.307C377.407 114.307 376.18 113.955 375.097 113.25C374.013 112.545 373.157 111.523 372.528 110.182C371.9 108.841 371.585 107.212 371.585 105.295C371.585 103.356 371.903 101.72 372.54 100.386C373.184 99.0455 374.051 98.0341 375.142 97.3523C376.233 96.6629 377.449 96.3182 378.79 96.3182C379.813 96.3182 380.653 96.4924 381.312 96.8409C381.972 97.1818 382.494 97.5947 382.881 98.0795C383.267 98.5568 383.566 99.0076 383.778 99.4318H383.949V90.7273H388.074V114H384.028V111.25H383.778C383.566 111.674 383.259 112.125 382.858 112.602C382.456 113.072 381.926 113.473 381.267 113.807C380.608 114.14 379.778 114.307 378.778 114.307ZM379.926 110.932C380.797 110.932 381.54 110.697 382.153 110.227C382.767 109.75 383.233 109.087 383.551 108.239C383.869 107.39 384.028 106.402 384.028 105.273C384.028 104.144 383.869 103.163 383.551 102.33C383.241 101.496 382.778 100.848 382.165 100.386C381.559 99.9242 380.813 99.6932 379.926 99.6932C379.009 99.6932 378.244 99.9318 377.631 100.409C377.017 100.886 376.555 101.545 376.244 102.386C375.934 103.227 375.778 104.189 375.778 105.273C375.778 106.364 375.934 107.337 376.244 108.193C376.563 109.042 377.028 109.712 377.642 110.205C378.263 110.689 379.025 110.932 379.926 110.932ZM400.185 114.341C398.435 114.341 396.923 113.977 395.651 113.25C394.385 112.515 393.412 111.477 392.73 110.136C392.048 108.788 391.707 107.201 391.707 105.375C391.707 103.58 392.048 102.004 392.73 100.648C393.42 99.2841 394.382 98.2235 395.616 97.4659C396.851 96.7008 398.302 96.3182 399.969 96.3182C401.045 96.3182 402.06 96.4924 403.014 96.8409C403.976 97.1818 404.825 97.7121 405.56 98.4318C406.302 99.1515 406.885 100.068 407.31 101.182C407.734 102.288 407.946 103.606 407.946 105.136V106.398H393.639V103.625H404.003C403.995 102.837 403.825 102.136 403.491 101.523C403.158 100.902 402.692 100.413 402.094 100.057C401.503 99.7008 400.813 99.5227 400.026 99.5227C399.185 99.5227 398.446 99.7273 397.81 100.136C397.173 100.538 396.677 101.068 396.321 101.727C395.973 102.379 395.795 103.095 395.787 103.875V106.295C395.787 107.311 395.973 108.182 396.344 108.909C396.715 109.629 397.234 110.182 397.901 110.568C398.567 110.947 399.348 111.136 400.241 111.136C400.84 111.136 401.382 111.053 401.866 110.886C402.351 110.712 402.772 110.458 403.128 110.125C403.484 109.792 403.753 109.379 403.935 108.886L407.776 109.318C407.533 110.333 407.071 111.22 406.389 111.977C405.715 112.727 404.851 113.311 403.798 113.727C402.745 114.136 401.541 114.341 400.185 114.341ZM420.79 90.7273H424.972V107.091C424.964 108.591 424.646 109.883 424.017 110.966C423.388 112.042 422.509 112.871 421.381 113.455C420.259 114.03 418.953 114.318 417.46 114.318C416.097 114.318 414.869 114.076 413.778 113.591C412.695 113.098 411.835 112.371 411.199 111.409C410.563 110.447 410.244 109.25 410.244 107.818H414.438C414.445 108.447 414.581 108.989 414.847 109.443C415.119 109.898 415.494 110.246 415.972 110.489C416.449 110.731 416.998 110.852 417.619 110.852C418.294 110.852 418.866 110.712 419.335 110.432C419.805 110.144 420.161 109.72 420.403 109.159C420.653 108.598 420.782 107.909 420.79 107.091V90.7273ZM442.193 97.125C442.087 96.1326 441.64 95.3598 440.852 94.8068C440.072 94.2538 439.057 93.9773 437.807 93.9773C436.928 93.9773 436.174 94.1098 435.545 94.375C434.917 94.6402 434.436 95 434.102 95.4545C433.769 95.9091 433.598 96.428 433.591 97.0114C433.591 97.4962 433.701 97.9167 433.92 98.2727C434.148 98.6288 434.455 98.9318 434.841 99.1818C435.227 99.4242 435.655 99.6288 436.125 99.7955C436.595 99.9621 437.068 100.102 437.545 100.216L439.727 100.761C440.606 100.966 441.451 101.242 442.261 101.591C443.08 101.939 443.811 102.379 444.455 102.909C445.106 103.439 445.621 104.08 446 104.83C446.379 105.58 446.568 106.458 446.568 107.466C446.568 108.83 446.22 110.03 445.523 111.068C444.826 112.098 443.818 112.905 442.5 113.489C441.189 114.064 439.602 114.352 437.739 114.352C435.928 114.352 434.356 114.072 433.023 113.511C431.697 112.951 430.659 112.133 429.909 111.057C429.167 109.981 428.765 108.67 428.705 107.125H432.852C432.913 107.936 433.163 108.61 433.602 109.148C434.042 109.686 434.614 110.087 435.318 110.352C436.03 110.617 436.826 110.75 437.705 110.75C438.621 110.75 439.424 110.614 440.114 110.341C440.811 110.061 441.356 109.674 441.75 109.182C442.144 108.682 442.345 108.098 442.352 107.432C442.345 106.826 442.167 106.326 441.818 105.932C441.47 105.53 440.981 105.197 440.352 104.932C439.731 104.659 439.004 104.417 438.17 104.205L435.523 103.523C433.606 103.03 432.091 102.284 430.977 101.284C429.871 100.277 429.318 98.9394 429.318 97.2727C429.318 95.9015 429.689 94.7008 430.432 93.6705C431.182 92.6402 432.201 91.8409 433.489 91.2727C434.777 90.697 436.235 90.4091 437.864 90.4091C439.515 90.4091 440.962 90.697 442.205 91.2727C443.455 91.8409 444.436 92.6326 445.148 93.6477C445.86 94.6553 446.227 95.8144 446.25 97.125H442.193Z" fill="white"/>
<path d="M416.477 180.727H420.659V197.091C420.652 198.591 420.333 199.883 419.705 200.966C419.076 202.042 418.197 202.871 417.068 203.455C415.947 204.03 414.64 204.318 413.148 204.318C411.784 204.318 410.557 204.076 409.466 203.591C408.383 203.098 407.523 202.371 406.886 201.409C406.25 200.447 405.932 199.25 405.932 197.818H410.125C410.133 198.447 410.269 198.989 410.534 199.443C410.807 199.898 411.182 200.246 411.659 200.489C412.136 200.731 412.686 200.852 413.307 200.852C413.981 200.852 414.553 200.712 415.023 200.432C415.492 200.144 415.848 199.72 416.091 199.159C416.341 198.598 416.47 197.909 416.477 197.091V180.727ZM437.881 187.125C437.775 186.133 437.328 185.36 436.54 184.807C435.759 184.254 434.744 183.977 433.494 183.977C432.616 183.977 431.862 184.11 431.233 184.375C430.604 184.64 430.123 185 429.79 185.455C429.456 185.909 429.286 186.428 429.278 187.011C429.278 187.496 429.388 187.917 429.608 188.273C429.835 188.629 430.142 188.932 430.528 189.182C430.915 189.424 431.343 189.629 431.812 189.795C432.282 189.962 432.756 190.102 433.233 190.216L435.415 190.761C436.294 190.966 437.138 191.242 437.949 191.591C438.767 191.939 439.498 192.379 440.142 192.909C440.794 193.439 441.309 194.08 441.688 194.83C442.066 195.58 442.256 196.458 442.256 197.466C442.256 198.83 441.907 200.03 441.21 201.068C440.513 202.098 439.506 202.905 438.188 203.489C436.877 204.064 435.29 204.352 433.426 204.352C431.616 204.352 430.044 204.072 428.71 203.511C427.384 202.951 426.347 202.133 425.597 201.057C424.854 199.981 424.453 198.67 424.392 197.125H428.54C428.6 197.936 428.85 198.61 429.29 199.148C429.729 199.686 430.301 200.087 431.006 200.352C431.718 200.617 432.513 200.75 433.392 200.75C434.309 200.75 435.112 200.614 435.801 200.341C436.498 200.061 437.044 199.674 437.438 199.182C437.831 198.682 438.032 198.098 438.04 197.432C438.032 196.826 437.854 196.326 437.506 195.932C437.157 195.53 436.669 195.197 436.04 194.932C435.419 194.659 434.691 194.417 433.858 194.205L431.21 193.523C429.294 193.03 427.778 192.284 426.665 191.284C425.559 190.277 425.006 188.939 425.006 187.273C425.006 185.902 425.377 184.701 426.119 183.67C426.869 182.64 427.888 181.841 429.176 181.273C430.464 180.697 431.922 180.409 433.551 180.409C435.203 180.409 436.65 180.697 437.892 181.273C439.142 181.841 440.123 182.633 440.835 183.648C441.547 184.655 441.915 185.814 441.938 187.125H437.881ZM466.81 192.364C466.81 194.871 466.34 197.019 465.401 198.807C464.469 200.587 463.196 201.951 461.582 202.898C459.976 203.845 458.154 204.318 456.116 204.318C454.079 204.318 452.253 203.845 450.639 202.898C449.033 201.943 447.76 200.576 446.821 198.795C445.889 197.008 445.423 194.864 445.423 192.364C445.423 189.856 445.889 187.712 446.821 185.932C447.76 184.144 449.033 182.777 450.639 181.83C452.253 180.883 454.079 180.409 456.116 180.409C458.154 180.409 459.976 180.883 461.582 181.83C463.196 182.777 464.469 184.144 465.401 185.932C466.34 187.712 466.81 189.856 466.81 192.364ZM462.571 192.364C462.571 190.598 462.295 189.11 461.741 187.898C461.196 186.678 460.438 185.758 459.469 185.136C458.499 184.508 457.382 184.193 456.116 184.193C454.851 184.193 453.734 184.508 452.764 185.136C451.795 185.758 451.033 186.678 450.48 187.898C449.935 189.11 449.662 190.598 449.662 192.364C449.662 194.129 449.935 195.621 450.48 196.841C451.033 198.053 451.795 198.973 452.764 199.602C453.734 200.223 454.851 200.534 456.116 200.534C457.382 200.534 458.499 200.223 459.469 199.602C460.438 198.973 461.196 198.053 461.741 196.841C462.295 195.621 462.571 194.129 462.571 192.364ZM489.92 180.727V204H486.17L475.205 188.148H475.011V204H470.795V180.727H474.568L485.523 196.591H485.727V180.727H489.92Z" fill="white"/>
<path d="M369.295 413V389.727H378.023C379.811 389.727 381.311 390.038 382.523 390.659C383.742 391.28 384.663 392.152 385.284 393.273C385.913 394.386 386.227 395.686 386.227 397.17C386.227 398.663 385.909 399.958 385.273 401.057C384.644 402.148 383.716 402.992 382.489 403.591C381.261 404.182 379.754 404.477 377.966 404.477H371.75V400.977H377.398C378.443 400.977 379.299 400.833 379.966 400.545C380.633 400.25 381.125 399.822 381.443 399.261C381.769 398.693 381.932 397.996 381.932 397.17C381.932 396.345 381.769 395.64 381.443 395.057C381.117 394.466 380.621 394.019 379.955 393.716C379.288 393.405 378.428 393.25 377.375 393.25H373.511V413H369.295ZM381.318 402.455L387.08 413H382.375L376.716 402.455H381.318ZM390.108 413V389.727H405.244V393.261H394.324V399.58H404.46V403.114H394.324V409.466H405.335V413H390.108ZM422.193 396.125C422.087 395.133 421.64 394.36 420.852 393.807C420.072 393.254 419.057 392.977 417.807 392.977C416.928 392.977 416.174 393.11 415.545 393.375C414.917 393.64 414.436 394 414.102 394.455C413.769 394.909 413.598 395.428 413.591 396.011C413.591 396.496 413.701 396.917 413.92 397.273C414.148 397.629 414.455 397.932 414.841 398.182C415.227 398.424 415.655 398.629 416.125 398.795C416.595 398.962 417.068 399.102 417.545 399.216L419.727 399.761C420.606 399.966 421.451 400.242 422.261 400.591C423.08 400.939 423.811 401.379 424.455 401.909C425.106 402.439 425.621 403.08 426 403.83C426.379 404.58 426.568 405.458 426.568 406.466C426.568 407.83 426.22 409.03 425.523 410.068C424.826 411.098 423.818 411.905 422.5 412.489C421.189 413.064 419.602 413.352 417.739 413.352C415.928 413.352 414.356 413.072 413.023 412.511C411.697 411.951 410.659 411.133 409.909 410.057C409.167 408.981 408.765 407.67 408.705 406.125H412.852C412.913 406.936 413.163 407.61 413.602 408.148C414.042 408.686 414.614 409.087 415.318 409.352C416.03 409.617 416.826 409.75 417.705 409.75C418.621 409.75 419.424 409.614 420.114 409.341C420.811 409.061 421.356 408.674 421.75 408.182C422.144 407.682 422.345 407.098 422.352 406.432C422.345 405.826 422.167 405.326 421.818 404.932C421.47 404.53 420.981 404.197 420.352 403.932C419.731 403.659 419.004 403.417 418.17 403.205L415.523 402.523C413.606 402.03 412.091 401.284 410.977 400.284C409.871 399.277 409.318 397.939 409.318 396.273C409.318 394.902 409.689 393.701 410.432 392.67C411.182 391.64 412.201 390.841 413.489 390.273C414.777 389.697 416.235 389.409 417.864 389.409C419.515 389.409 420.962 389.697 422.205 390.273C423.455 390.841 424.436 391.633 425.148 392.648C425.86 393.655 426.227 394.814 426.25 396.125H422.193ZM429.304 393.261V389.727H447.872V393.261H440.679V413H436.497V393.261H429.304Z" fill="#D35400"/>
<path d="M86.9432 77.125C86.8371 76.1326 86.3902 75.3598 85.6023 74.8068C84.822 74.2538 83.8068 73.9773 82.5568 73.9773C81.678 73.9773 80.9242 74.1098 80.2955 74.375C79.6667 74.6402 79.1856 75 78.8523 75.4545C78.5189 75.9091 78.3485 76.428 78.3409 77.0114C78.3409 77.4962 78.4508 77.9167 78.6705 78.2727C78.8977 78.6288 79.2045 78.9318 79.5909 79.1818C79.9773 79.4242 80.4053 79.6288 80.875 79.7955C81.3447 79.9621 81.8182 80.1023 82.2955 80.2159L84.4773 80.7614C85.3561 80.9659 86.2008 81.2424 87.0114 81.5909C87.8295 81.9394 88.5606 82.3788 89.2045 82.9091C89.8561 83.4394 90.3712 84.0795 90.75 84.8295C91.1288 85.5795 91.3182 86.4583 91.3182 87.4659C91.3182 88.8295 90.9697 90.0303 90.2727 91.0682C89.5758 92.0985 88.5682 92.9053 87.25 93.4886C85.9394 94.0644 84.3523 94.3523 82.4886 94.3523C80.678 94.3523 79.1061 94.072 77.7727 93.5114C76.447 92.9508 75.4091 92.1326 74.6591 91.0568C73.9167 89.9811 73.5152 88.6705 73.4545 87.125H77.6023C77.6629 87.9356 77.9129 88.6098 78.3523 89.1477C78.7917 89.6856 79.3636 90.0871 80.0682 90.3523C80.7803 90.6174 81.5758 90.75 82.4545 90.75C83.3712 90.75 84.1742 90.6136 84.8636 90.3409C85.5606 90.0606 86.1061 89.6742 86.5 89.1818C86.8939 88.6818 87.0947 88.0985 87.1023 87.4318C87.0947 86.8258 86.9167 86.3258 86.5682 85.9318C86.2197 85.5303 85.7311 85.197 85.1023 84.9318C84.4811 84.6591 83.7538 84.4167 82.9205 84.2045L80.2727 83.5227C78.3561 83.0303 76.8409 82.2841 75.7273 81.2841C74.6212 80.2765 74.0682 78.9394 74.0682 77.2727C74.0682 75.9015 74.4394 74.7008 75.1818 73.6705C75.9318 72.6402 76.9508 71.8409 78.2386 71.2727C79.5265 70.697 80.9848 70.4091 82.6136 70.4091C84.2652 70.4091 85.7121 70.697 86.9545 71.2727C88.2045 71.8409 89.1856 72.6326 89.8977 73.6477C90.6098 74.6553 90.9773 75.8144 91 77.125H86.9432ZM103.747 86.1818H107.565L109.827 89.1136L111.44 91.0227L115.315 96H111.224L108.588 92.6591L107.463 91.0682L103.747 86.1818ZM115.872 82.3636C115.872 84.8712 115.402 87.0189 114.463 88.8068C113.531 90.5871 112.259 91.9508 110.645 92.8977C109.039 93.8447 107.217 94.3182 105.179 94.3182C103.141 94.3182 101.315 93.8447 99.7017 92.8977C98.0956 91.9432 96.8229 90.5758 95.8835 88.7955C94.9517 87.0076 94.4858 84.8636 94.4858 82.3636C94.4858 79.8561 94.9517 77.7121 95.8835 75.9318C96.8229 74.1439 98.0956 72.7765 99.7017 71.8295C101.315 70.8826 103.141 70.4091 105.179 70.4091C107.217 70.4091 109.039 70.8826 110.645 71.8295C112.259 72.7765 113.531 74.1439 114.463 75.9318C115.402 77.7121 115.872 79.8561 115.872 82.3636ZM111.634 82.3636C111.634 80.5985 111.357 79.1098 110.804 77.8977C110.259 76.678 109.501 75.7576 108.531 75.1364C107.562 74.5076 106.444 74.1932 105.179 74.1932C103.914 74.1932 102.796 74.5076 101.827 75.1364C100.857 75.7576 100.096 76.678 99.5426 77.8977C98.9972 79.1098 98.7244 80.5985 98.7244 82.3636C98.7244 84.1288 98.9972 85.6212 99.5426 86.8409C100.096 88.053 100.857 88.9735 101.827 89.6023C102.796 90.2235 103.914 90.5341 105.179 90.5341C106.444 90.5341 107.562 90.2235 108.531 89.6023C109.501 88.9735 110.259 88.053 110.804 86.8409C111.357 85.6212 111.634 84.1288 111.634 82.3636ZM119.889 94V70.7273H124.105V90.4659H134.355V94H119.889Z" fill="white"/>
</svg>
